<svg viewBox="0 0 48 48" fill="inherit" xmlns="http://www.w3.org/2000/svg">
<path d="M24.0009 9.41127C27.502 9.41127 30.7908 10.6916 33.2715 13.0225C35.7594 15.3602 37.1296 18.4708 37.1296 21.7813C37.1296 24.5037 36.2091 27.0863 34.4674 29.2498C33.0016 31.0707 30.9998 32.489 28.7525 33.315L28.2673 33.4829L28.2722 34.7217H28.8487C29.259 34.7217 29.5918 35.0365 29.5918 35.4248C29.5918 35.7699 29.3289 36.0571 28.9822 36.1166L28.8487 36.1279H28.2778L28.2839 37.6577H28.8487C29.259 37.6577 29.5918 37.9726 29.5918 38.3608C29.5918 38.706 29.3289 38.9931 28.9822 39.0526L28.8487 39.064H28.2894L28.2983 41.2943C28.299 41.4812 28.2211 41.6607 28.0816 41.7931C27.9771 41.8924 27.8443 41.9591 27.7012 41.9863L27.5552 42H20.4447C20.2472 42 20.0577 41.9256 19.9183 41.7931C19.8137 41.6938 19.7437 41.568 19.7156 41.4324L19.7016 41.2943L19.7105 39.064H19.1512C18.7409 39.064 18.4082 38.7491 18.4082 38.3608C18.4082 38.0157 18.6711 37.7286 19.0177 37.669L19.1512 37.6577H19.7161L19.7221 36.1279H19.1512C18.7409 36.1279 18.4082 35.8131 18.4082 35.4248C18.4082 35.0797 18.6711 34.7926 19.0177 34.733L19.1512 34.7217H19.7277L19.7326 33.4829C17.2591 32.6801 15.0542 31.1675 13.4785 29.1822C11.731 26.9802 10.8295 24.358 10.8717 21.5991C10.9205 18.4075 12.3162 15.3705 14.8014 13.0474C17.1614 10.8414 20.1974 9.56576 23.3988 9.42418L23.9056 9.41127H24.0009ZM26.8033 39.0639H21.1967L21.1907 40.5937H26.8094L26.8033 39.0639ZM26.7916 36.1279H21.2083L21.2023 37.6576H26.7977L26.7916 36.1279ZM24.0006 10.8175L23.916 10.8177C17.7397 10.8587 12.4466 15.8053 12.3577 21.6193C12.2828 26.5166 15.7082 30.9066 20.6879 32.2953C20.9596 32.371 21.158 32.5846 21.2084 32.841L21.2209 32.9723L21.2139 34.7216H26.7861L26.7791 32.9723C26.7779 32.6596 26.9951 32.3837 27.3121 32.2953C32.2175 30.9273 35.6435 26.6038 35.6435 21.7813C35.6435 18.8482 34.4292 16.0921 32.2243 14.0203C30.0243 11.9531 27.1065 10.8175 24.0006 10.8175ZM25.2972 13.4916C25.6444 13.4916 25.9259 13.758 25.9259 14.0866V14.5689C26.6764 14.7483 27.3841 15.0301 28.0314 15.3977L28.3887 15.0583C28.6345 14.825 29.0337 14.825 29.2795 15.0583L31.1156 16.8018C31.3601 17.034 31.3601 17.4095 31.1156 17.6417L30.7551 17.984C31.1423 18.5986 31.4391 19.2705 31.628 19.9832H32.1336C32.4809 19.9832 32.7624 20.2495 32.7624 20.5781V23.0458C32.7624 23.3744 32.4809 23.6407 32.1336 23.6407H31.6279C31.439 24.3534 31.1422 25.0253 30.7551 25.6399L31.1155 25.9821C31.36 26.2143 31.36 26.5898 31.1155 26.822L29.2794 28.5655C29.0337 28.7988 28.6345 28.7988 28.3887 28.5655L28.0314 28.2262C27.3841 28.5938 26.6764 28.8756 25.9259 29.0549V29.5373C25.9259 29.8658 25.6444 30.1322 25.2972 30.1322H22.7027C22.3554 30.1322 22.0739 29.8658 22.0739 29.5373V29.0549C21.3235 28.8756 20.6159 28.5938 19.9685 28.2262L19.6111 28.5655C19.3655 28.7988 18.9662 28.7988 18.7205 28.5655L16.8843 26.822C16.6398 26.5898 16.6398 26.2143 16.8843 25.9821L17.2448 25.6399C16.8576 25.0253 16.5608 24.3534 16.372 23.6407H15.8662C15.519 23.6407 15.2375 23.3744 15.2375 23.0458V20.5781C15.2375 20.2495 15.519 19.9832 15.8662 19.9832H16.372C16.5608 19.2705 16.8576 18.5986 17.2448 17.984L16.8843 17.6417C16.6398 17.4095 16.6398 17.034 16.8843 16.8018L18.7205 15.0583C18.9661 14.825 19.3654 14.825 19.6111 15.0583L19.9685 15.3977C20.6158 15.0301 21.3234 14.7483 22.0739 14.5689V14.0866C22.0739 13.758 22.3554 13.4916 22.7027 13.4916H25.2972ZM24 17.5819C21.5397 17.5819 19.5451 19.4758 19.5451 21.812C19.5451 24.1482 21.5397 26.042 24 26.042C26.4603 26.042 28.4549 24.1482 28.4549 21.812C28.4549 19.4758 26.4603 17.5819 24 17.5819ZM41.2569 23.8098C41.6673 23.8098 42 24.1247 42 24.513C42 24.8581 41.7371 25.1452 41.3905 25.2048L41.2569 25.2161H40.4769C40.0666 25.2161 39.7338 24.9012 39.7338 24.513C39.7338 24.1678 39.9967 23.8807 40.3433 23.8212L40.4769 23.8098H41.2569ZM7.5231 23.8098C7.93343 23.8098 8.26618 24.1247 8.26618 24.513C8.26618 24.8581 8.00327 25.1452 7.65665 25.2048L7.5231 25.2161H6.74308C6.33275 25.2161 6 24.9012 6 24.513C6 24.1678 6.26292 23.8807 6.60953 23.8212L6.74308 23.8098H7.5231ZM10.8703 11.1742L10.9871 11.264L11.7055 11.9407C11.9964 12.2147 11.9974 12.6598 11.7079 12.935C11.5627 13.0731 11.372 13.1421 11.1813 13.1421C11.0391 13.1421 10.8968 13.1037 10.7735 13.0269L10.6571 12.9373L9.93864 12.2606C9.6478 11.9866 9.64675 11.5415 9.93626 11.2663C10.1896 11.0254 10.5815 10.9946 10.8703 11.1742ZM38.0637 11.2663C38.3171 11.5071 38.3479 11.878 38.1568 12.1505L38.0614 12.2606L37.3429 12.9373C37.198 13.0738 37.0083 13.1421 36.8187 13.1421C36.628 13.1421 36.4373 13.0731 36.2921 12.935C36.0387 12.6942 36.0079 12.3233 36.199 12.0508L36.2945 11.9407L37.0129 11.264C37.3038 10.9901 37.7742 10.9911 38.0637 11.2663ZM24 6C24.3647 6 24.6682 6.24872 24.7311 6.57673L24.7431 6.70312V7.43782C24.7431 7.82615 24.4103 8.14094 24 8.14094C23.6352 8.14094 23.3318 7.89222 23.2689 7.56421L23.2569 7.43782V6.70312C23.2569 6.31479 23.5896 6 24 6Z"/>
</svg>
