<svg viewBox="0 0 48 48" fill="inherit" xmlns="http://www.w3.org/2000/svg">
<path d="M4.98728 23.9412C4.98728 25.4568 5.5237 27.4968 6.54283 27.4968L20.5864 27.4968L20.5864 40.9726C20.5864 41.8317 22.6263 42.5282 24.1419 42.5282C25.6575 42.5282 27.6975 41.8317 27.6975 40.9726L27.6975 27.4968L41.1733 27.4968C42.0324 27.4968 42.7289 25.4568 42.7289 23.9412C42.7289 22.4256 42.0324 20.3857 41.1733 20.3857L27.6975 20.3857L27.6975 6.34211C27.6975 4.6424 25.6575 4.78655 24.1419 4.78655C22.6263 4.78655 20.5864 4.64256 20.5864 6.34211L20.5864 20.3857L6.54283 20.3857C5.47242 20.3857 4.98728 22.4256 4.98728 23.9412Z"/>
</svg>
